HIERARCHY
ROOT Hips
{
	OFFSET 0.000000 0.000000 0.000000
	CHANNELS 6 Xposition Yposition Zposition Zrotation Yrotation Xrotation 
	JOINT LHipJoint
	{
		OFFSET 0.000000 0.000000 0.000000
		CHANNELS 3 Zrotation Yrotation Xrotation
		JOINT LeftUpLeg
		{
			OFFSET 1.363060 -1.794630 0.839290
			CHANNELS 3 Zrotation Yrotation Xrotation
			JOINT LeftLeg
			{
				OFFSET 2.448110 -6.726130 0.000000
				CHANNELS 3 Zrotation Yrotation Xrotation
				JOINT LeftFoot
				{
					OFFSET 2.562200 -7.039590 0.000000
					CHANNELS 3 Zrotation Yrotation Xrotation
					JOINT LeftToeBase
					{
						OFFSET 0.157640 -0.433110 2.322550
						CHANNELS 3 Zrotation Yrotation Xrotation
						End Site
						{
							OFFSET 0.000000 0.000000 0.000000
						}
					}
				}
			}
		}
	}
	JOINT RHipJoint
	{
		OFFSET 0.000000 0.000000 0.000000
		CHANNELS 3 Zrotation Yrotation Xrotation
		JOINT RightUpLeg
		{
			OFFSET -1.305520 -1.794630 0.839290
			CHANNELS 3 Zrotation Yrotation Xrotation
			JOINT RightLeg
			{
				OFFSET -2.542530 -6.985550 0.000000
				CHANNELS 3 Zrotation Yrotation Xrotation
				JOINT RightFoot
				{
					OFFSET -2.568260 -7.056230 0.000000
					CHANNELS 3 Zrotation Yrotation Xrotation
					JOINT RightToeBase
					{
						OFFSET -0.164730 -0.452590 2.363150
						CHANNELS 3 Zrotation Yrotation Xrotation
						End Site
						{
							OFFSET 0.000000 0.000000 0.000000
						}
					}
				}
			}
		}
	}
	JOINT LowerBack
	{
		OFFSET 0.000000 0.000000 0.000000
		CHANNELS 3 Zrotation Yrotation Xrotation
		JOINT Spine
		{
			OFFSET 0.028270 2.035590 -0.193380
			CHANNELS 3 Zrotation Yrotation Xrotation
			JOINT Spine1
			{
				OFFSET 0.056720 2.048850 -0.042750
				CHANNELS 3 Zrotation Yrotation Xrotation
				JOINT Neck
				{
					OFFSET 0.000000 0.000000 0.000000
					CHANNELS 3 Zrotation Yrotation Xrotation
					JOINT Neck1
					{
						OFFSET -0.054170 1.746240 0.172020
						CHANNELS 3 Zrotation Yrotation Xrotation
						JOINT Head
						{
							OFFSET 0.104070 1.761360 -0.123970
							CHANNELS 3 Zrotation Yrotation Xrotation
							End Site
							{
								OFFSET 0.000000 0.000000 0.000000
							}
						}
					}
				}
				JOINT LeftShoulder
				{
					OFFSET 0.000000 0.000000 0.000000
					CHANNELS 3 Zrotation Yrotation Xrotation
					JOINT LeftArm
					{
						OFFSET 3.362410 1.200890 -0.311210
						CHANNELS 3 Zrotation Yrotation Xrotation
						JOINT LeftForeArm
						{
							OFFSET 4.983000 -0.000000 -0.000000
							CHANNELS 3 Zrotation Yrotation Xrotation
							JOINT LeftHand
							{
								OFFSET 3.483560 -0.000000 -0.000000
								CHANNELS 3 Zrotation Yrotation Xrotation
								JOINT LeftFingerBase
								{
									OFFSET 0.000000 0.000000 0.000000
									CHANNELS 3 Zrotation Yrotation Xrotation
									JOINT LeftHandIndex1
									{
										OFFSET 0.715260 -0.000000 -0.000000
										CHANNELS 3 Zrotation Yrotation Xrotation
										End Site
										{
											OFFSET 0.000000 0.000000 0.000000
										}
									}
								}
								JOINT LThumb
								{
									OFFSET 0.000000 0.000000 0.000000
									CHANNELS 3 Zrotation Yrotation Xrotation
									End Site
									{
										OFFSET 0.000000 0.000000 0.000000
									}
								}
							}
						}
					}
				}
				JOINT RightShoulder
				{
					OFFSET 0.000000 0.000000 0.000000
					CHANNELS 3 Zrotation Yrotation Xrotation
					JOINT RightArm
					{
						OFFSET -3.136600 1.374050 -0.404650
						CHANNELS 3 Zrotation Yrotation Xrotation
						JOINT RightForeArm
						{
							OFFSET -5.241900 -0.000000 -0.000000
							CHANNELS 3 Zrotation Yrotation Xrotation
							JOINT RightHand
							{
								OFFSET -3.444170 -0.000000 -0.000000
								CHANNELS 3 Zrotation Yrotation Xrotation
								JOINT RightFingerBase
								{
									OFFSET 0.000000 0.000000 0.000000
									CHANNELS 3 Zrotation Yrotation Xrotation
									JOINT RightHandIndex1
									{
										OFFSET -0.622530 -0.000000 -0.000000
										CHANNELS 3 Zrotation Yrotation Xrotation
										End Site
										{
											OFFSET 0.000000 0.000000 0.000000
										}
									}
								}
								JOINT RThumb
								{
									OFFSET 0.000000 0.000000 0.000000
									CHANNELS 3 Zrotation Yrotation Xrotation
									End Site
									{
										OFFSET 0.000000 0.000000 0.000000
									}
								}
							}
						}
					}
				}
			}
		}
	}
}
MOTION
Frames: 4
Frame Time: 0.008333
3.437825 16.437588 6.876701 4.473850 28.120411 21.418800 -12.743795 2.418335 -2.711397 2.429900 10.610518 -14.173423 0.019934 2.846642 47.458322 1.764678 6.739744 18.744633 2.087201 0.000000 -56.203200 7.399743 -0.028345 -1.747254 20.055026 -1.908003 -45.810714 2.317032 -2.606076 40.771815 -3.577874 -9.876450 -22.301958 -177.603100 -0.000000 -10.597500 9.714287 -2.678961 9.067132 1.425653 -2.746097 0.248330 -4.875393 -2.866808 3.517169 9.027014 -0.688488 3.170128 -3.720889 -0.330424 2.380036 0.000000 0.000000 0.000000 -1.088481 -2.678263 1.229721 -17.428289 -26.671810 -14.087992 -1.158481 -35.592657 -0.073726 16.037227 -0.585037 -0.122519 -0.194904 0.276181 0.000000 0.000000 0.000000 0.000000 0.000000 0.000000 0.000000 15.864928 -5.918548 0.324213 30.192582 14.263548 -30.769100 2.437256 19.808790 0.002503 -6.336868 7.597124 -0.434731 0.110900 -0.114222 -0.000000 0.000000 0.000000 0.000000 0.000000 0.000000 0.000000 
3.456630 16.449468 7.004018 4.618847 28.160380 21.439438 -12.689268 2.316036 -2.636830 2.265987 9.700312 -15.111266 0.104562 2.937880 49.009747 1.872331 8.082448 17.990720 2.573800 -0.000001 -53.598100 7.429695 0.007891 -1.882149 20.009874 -2.118711 -45.123699 2.291887 -2.567771 40.740706 -3.658527 -10.156770 -22.716163 -177.451600 0.000000 -10.537800 9.673622 -2.679612 9.184376 1.410149 -2.740945 0.284439 -4.882627 -2.859880 3.518134 9.661118 -0.538786 3.430112 -3.699224 -0.330259 2.441457 0.000000 0.000000 0.000000 -1.017772 -2.929571 1.143992 -17.993076 -26.793671 -12.582681 -1.126686 -36.658514 -0.073099 16.031570 -0.533562 -0.114699 -0.195902 0.273532 0.000000 0.000000 0.000000 0.000000 0.000000 0.000000 0.000000 16.216962 -5.891541 0.292140 30.676141 14.747776 -32.222426 2.358196 19.557915 0.000674 -7.073918 7.564514 -0.482344 0.108025 -0.113500 -0.000000 0.000000 0.000000 0.000000 0.000000 0.000000 0.000000 
3.473831 16.465918 7.131938 4.826262 28.190214 21.550845 -12.620818 2.216177 -2.538284 2.000080 8.727333 -16.122324 0.182304 3.013539 50.413172 1.976289 9.422936 17.058801 3.019100 0.000000 -51.530800 7.473012 0.046838 -1.985185 19.895995 -2.302953 -44.498279 2.263286 -2.523679 40.621097 -3.726415 -10.420257 -22.987631 -177.336300 -0.000000 -10.523701 9.586475 -2.668832 9.232840 1.384161 -2.727795 0.300334 -4.894861 -2.843998 3.511059 10.298176 -0.423259 3.661492 -3.674510 -0.330000 2.497416 0.000000 0.000000 0.000000 -1.003157 -3.187073 1.072111 -18.575371 -26.893974 -10.886942 -1.105562 -37.882079 -0.071281 15.834610 -0.558011 -0.116271 -0.195762 0.270687 -0.000000 0.000000 0.000000 0.000000 0.000000 0.000000 0.000000 16.560841 -5.868777 0.265994 31.271801 15.219409 -33.429773 2.279203 19.412435 -0.001152 -7.862528 7.599302 -0.537659 0.104591 -0.112585 -0.000000 0.000000 0.000000 0.000000 0.000000 0.000000 0.000000 
3.489821 16.486659 7.260023 5.079406 28.191841 21.743057 -12.542965 2.118013 -2.419966 1.658420 7.723576 -17.201446 0.250811 3.074579 51.669313 2.071166 10.689616 15.934007 3.381900 -0.000000 -49.598500 7.524349 0.084814 -2.057016 19.736436 -2.454198 -43.941058 2.234350 -2.475592 40.435233 -3.781280 -10.650216 -23.154190 -177.252600 0.000000 -10.603800 9.463742 -2.644137 9.217297 1.350056 -2.704135 0.293336 -4.911985 -2.817006 3.484798 10.919243 -0.292794 3.876679 -3.644429 -0.329662 2.551511 0.000000 0.000000 0.000000 -1.019153 -3.467387 1.016906 -19.231266 -26.924946 -9.047404 -1.096292 -39.267396 -0.068287 15.449319 -0.685873 -0.130635 -0.194300 0.267872 -0.000000 0.000000 0.000000 0.000000 0.000000 0.000000 0.000000 16.865861 -5.792265 0.248237 32.010328 15.595504 -34.384920 2.200460 19.417338 -0.002958 -8.671335 7.676033 -0.597971 0.100560 -0.111423 -0.000000 0.000000 0.000000 0.000000 0.000000 0.000000 0.000000 
